<svg xmlns="http://www.w3.org/2000/svg" version="1.1" xmlns:xlink="http://www.w3.org/1999/xlink" viewBox="0 0 200 200"><rect width="200" height="200" fill="url('#gradient')"></rect><defs><linearGradient id="gradient" gradientTransform="rotate(45 0.5 0.5)"><stop offset="0%" stop-color="#472027"></stop><stop offset="100%" stop-color="#c06a3e"></stop></linearGradient></defs><g><g fill="#f3bd7d" transform="matrix(5.657458563535911,0,0,5.657458563535911,7.502901399662491,141.89570598180782)" stroke="#c06a3e" stroke-width="0.2"><path d="M10.17 0L6.88 0Q6.70-0.32 6.56-0.95L6.56-0.95Q5.65 0.20 4.02 0.20L4.02 0.20Q2.53 0.20 1.48-0.71Q0.44-1.61 0.44-2.98L0.44-2.98Q0.44-4.70 1.71-5.58Q2.98-6.46 5.40-6.46L5.40-6.46L6.42-6.46L6.42-7.01Q6.42-8.47 5.16-8.47L5.16-8.47Q3.98-8.47 3.98-7.31L3.98-7.31L0.69-7.31Q0.69-8.85 2.00-9.80Q3.30-10.76 5.32-10.76Q7.34-10.76 8.52-9.78Q9.69-8.79 9.72-7.07L9.72-7.07L9.72-2.39Q9.74-0.94 10.17-0.17L10.17-0.17L10.17 0ZM4.81-2.15L4.81-2.15Q5.43-2.15 5.83-2.41Q6.24-2.68 6.42-3.01L6.42-3.01L6.42-4.70L5.46-4.70Q3.74-4.70 3.74-3.15L3.74-3.15Q3.74-2.71 4.04-2.43Q4.35-2.15 4.81-2.15ZM18.09 0L15.78-3.94L14.85-3.01L14.85 0L11.56 0L11.56-15.01L14.85-15.01L14.85-7.04L15.19-7.48L17.67-10.57L21.61-10.57L17.91-6.22L21.86 0L18.09 0ZM22.07-4.82L22.06-5.38Q22.06-6.96 22.68-8.20Q23.29-9.43 24.44-10.10Q25.60-10.76 27.15-10.76L27.15-10.76Q29.52-10.76 30.89-9.29Q32.26-7.82 32.26-5.29L32.26-5.29L32.26-5.18Q32.26-2.71 30.88-1.25Q29.51 0.20 27.17 0.20L27.17 0.20Q24.91 0.20 23.54-1.16Q22.18-2.51 22.07-4.82L22.07-4.82ZM25.36-5.77L25.35-5.18Q25.35-3.71 25.81-3.03Q26.27-2.34 27.17-2.34L27.17-2.34Q28.93-2.34 28.96-5.05L28.96-5.05L28.96-5.38Q28.96-8.22 27.15-8.22L27.15-8.22Q25.50-8.22 25.36-5.77L25.36-5.77Z"></path></g></g></svg>